<svg xmlns="http://www.w3.org/2000/svg" xmlns:xlink="http://www.w3.org/1999/xlink" viewBox="0 0 837 780"><defs><style>.cls-1{fill:none;}.cls-2{isolation:isolate;}.cls-3{clip-path:url(#clip-path);}.cls-4{fill:#ecf9f9;}.cls-5{fill:#004751;}.cls-6{fill:#ffba00;}.cls-7{fill:#e6dccd;}.cls-8{fill:#097581;}.cls-9{fill:#343a55;}.cls-10{fill:#2c3451;}.cls-11{fill:#048282;}.cls-12{fill:#3baeb3;}.cls-13,.cls-19{fill:#b3e6e9;}.cls-14,.cls-18{fill:#d9f3f4;}.cls-15{fill:#829cbf;}.cls-16{fill:#758fb3;}.cls-17{fill:#fff;}.cls-18,.cls-20,.cls-23{mix-blend-mode:multiply;}.cls-19{opacity:0.6;}.cls-20,.cls-23{fill:#606060;}.cls-20{opacity:0.2;}.cls-21{fill:#089ea3;}.cls-22{fill:#044750;}.cls-23{opacity:0.34;}.cls-24{fill:#eb834c;}.cls-25{fill:#241e22;}.cls-26{fill:#274b5a;}.cls-27{fill:#f4f4f4;}.cls-28{clip-path:url(#clip-path-2);}.cls-29{fill:#fcc828;}.cls-30{fill:#97b3b7;}.cls-31{fill:#684034;}.cls-32{fill:#44281c;}.cls-33{fill:#aa4034;}.cls-34{fill:#dbdbdb;}.cls-35{fill:#88898b;}.cls-36{fill:#f5fdfd;}</style><clipPath id="clip-path"><rect class="cls-1" x="0.5" y="0.5" width="837" height="778"/></clipPath><clipPath id="clip-path-2"><path class="cls-1" d="M355.56,306.59a22.64,22.64,0,0,0-12.1,25.78l31.82,141.05c.27-2.45.5-4.58.66-6.12H502.78c.14,1,.3,2.12.47,3.36l.87-142.8a23.56,23.56,0,0,0-13.49-21.45L440.1,282.49l-14.92-.72-1.88-.09L408.39,281Z"/></clipPath></defs><title>everpro illustration</title><g class="cls-2"><g id="Layer_1" data-name="Layer 1"><g class="cls-3"><rect class="cls-4" x="-283.5" y="-12" width="1411" height="830"/><rect class="cls-5" x="538.56" y="156.75" width="233.85" height="167.68" transform="translate(896.07 -414.89) rotate(90)"/><rect class="cls-6" x="545.98" y="164.67" width="219.01" height="151.84" transform="translate(896.07 -414.89) rotate(90)"/><rect class="cls-7" x="596" y="199.35" width="118.96" height="82.47" transform="translate(896.07 -414.89) rotate(90)"/><path class="cls-1" d="M598,277.72a40.24,40.24,0,0,0,73.71,22.35H614.24V245.4A40.23,40.23,0,0,0,598,277.72Z"/><polygon class="cls-1" points="696.72 226.9 696.72 239.33 704.94 234.4 696.72 226.9"/><path class="cls-8" d="M671.67,300.07a40.12,40.12,0,0,0,.21-44.38l-34.71,20.84L648,238.66a40.15,40.15,0,0,0-33.71,6.74v54.67Z"/><rect class="cls-8" x="637.46" y="200.8" width="6.02" height="6.02"/><rect class="cls-8" x="626.34" y="189.68" width="9.88" height="9.88"/><path class="cls-8" d="M648.29,237.46l2.29-8.05H638.71v-5.79h13.52L661,192.68l35.68,32.54V181.11H614.24v62.76a41.3,41.3,0,0,1,24-7.65A41.85,41.85,0,0,1,648.29,237.46Zm-23.2-36.66V188.43h12.37v11.13h7.27v8.51h-8.51V200.8Z"/><path class="cls-8" d="M696.72,240.78,673,255.05a41.37,41.37,0,0,1,.2,45h23.57Zm-5.62,48.57h-7.49v-7.49h7.49Z"/><path class="cls-8" d="M661.68,195l-8.16,28.66h29.12v5.79H651.88l-2.39,8.38A41.66,41.66,0,0,1,672.25,254l24.47-14.69V226.9Z"/><rect class="cls-8" x="684.86" y="283.11" width="5" height="5"/><polygon class="cls-8" points="681.4 224.87 653.17 224.87 652.23 228.16 681.4 228.16 681.4 224.87"/><polygon class="cls-8" points="651.88 224.87 639.96 224.87 639.96 228.16 650.94 228.16 651.88 224.87"/><path class="cls-8" d="M649.15,239l-9.92,34.85,31.95-19.18A40.39,40.39,0,0,0,649.15,239Z"/><polygon class="cls-8" points="704.94 234.4 696.72 239.33 696.72 240.78 707.01 234.6 696.72 225.22 696.72 226.9 704.94 234.4"/><path class="cls-6" d="M673,255.05l23.77-14.27v-1.45L672.25,254a41.66,41.66,0,0,0-22.76-16.23l2.39-8.38h30.76v-5.79H653.52L661.68,195l35,31.94v-1.68L661,192.68l-8.81,30.94H638.71v5.79h11.87l-2.29,8.05a41.85,41.85,0,0,0-10.08-1.24,41.3,41.3,0,0,0-24,7.65v1.53A40.15,40.15,0,0,1,648,238.66l-10.78,37.87,34.71-20.84a40.12,40.12,0,0,1-.21,44.38h1.48a41.37,41.37,0,0,0-.2-45Zm-19.78-30.18H681.4v3.29H652.23ZM640,228.16v-3.29h11.91l-.93,3.29Zm-.73,45.68L649.15,239a40.39,40.39,0,0,1,22,15.67Z"/><path class="cls-6" d="M683.61,289.35h7.49v-7.49h-7.49Zm1.25-6.24h5v5h-5Z"/><path class="cls-6" d="M644.73,208.07v-8.51h-7.27V188.43H625.09V200.8h11.13v7.27Zm-7.27-7.27h6v6h-6Zm-11.12-1.24v-9.88h9.88v9.88Z"/><path class="cls-6" d="M174.47,125.11a14.26,14.26,0,1,1,14.26-14.26A14.28,14.28,0,0,1,174.47,125.11Zm0-27.28a13,13,0,1,0,13,13A13,13,0,0,0,174.47,97.83Z"/><path class="cls-9" d="M174.47,110.85h0a6.13,6.13,0,0,1-6.11-6.11V86.41a6.13,6.13,0,0,1,6.11-6.12h0a6.13,6.13,0,0,1,6.12,6.12v18.33A6.13,6.13,0,0,1,174.47,110.85Z"/><path class="cls-6" d="M287.25,115.12C253.88,102.31,215.43,95,174.47,95S95.06,102.31,61.7,115.12Z"/><rect class="cls-10" x="173.85" y="-12" width="1.24" height="92.29"/><path class="cls-11" d="M334.6,351.39S354.38,336.8,345.45,329c-21-17.48-75.24,42.32-73.84,48.57s67.26,18.23,78.53-11.93C357.43,347.16,334.6,351.39,334.6,351.39Z"/><path class="cls-12" d="M334.6,351.39s-16.55,1.3-63,26.19c1.41,6.25,67.26,18.23,78.53-11.93C357.43,347.16,334.6,351.39,334.6,351.39Z"/><path class="cls-5" d="M293.17,367.22l-.55-1.12c49.61-24.12,81.05-24.47,93.45-1.05l-1.1.58C373,342.92,342.06,343.45,293.17,367.22Z"/><path class="cls-5" d="M274.23,377.09l-.6-1.09c3.93-2.17,7.79-4.24,11.48-6.14l.57,1.11C282,372.86,278.15,374.92,274.23,377.09Z"/><path class="cls-6" d="M410.9,362.1H376.82s-23.29,96.75-21.21,110.57a36.93,36.93,0,0,0,10.61,21.21H421.5a36.86,36.86,0,0,0,10.61-21.21C434.19,458.85,410.9,362.1,410.9,362.1Z"/><rect class="cls-5" x="375.7" y="366.04" width="36.33" height="1.24"/><rect class="cls-5" x="355.51" y="470.9" width="76.6" height="1.24"/><rect class="cls-5" x="348.69" y="493.88" width="90.35" height="14.34"/><rect class="cls-5" x="258.98" y="599.19" width="190.81" height="1.24" transform="matrix(0.05, -1, 1, 0.05, -262.23, 924.09)"/><rect class="cls-5" x="432.71" y="504.41" width="1.25" height="190.81" transform="translate(-29.64 22.57) rotate(-2.88)"/><rect class="cls-5" x="351.52" y="656.04" width="84.68" height="1.25"/><rect class="cls-5" x="352.91" y="628.4" width="81.89" height="1.25"/><path class="cls-11" d="M458,371.06s-19.62-14.82-24.55-4c-10.79,25.1,47.3,70.25,52.89,67.13s13-79.83-19.09-82C447.43,350.37,458,371.06,458,371.06Z"/><path class="cls-12" d="M458,371.06s-19.62-14.82-24.55-4c-10.79,25.1,47.3,70.25,52.89,67.13C484.73,419.41,468,377.12,458,371.06Z"/><path class="cls-12" d="M381.89,306.59s.94,19.69-14.77,17.79S363.9,266,363.9,266,414.64,295.6,401,308.48C391.33,318.87,381.89,306.59,381.89,306.59Z"/><path class="cls-11" d="M381.89,306.59,363.9,266S414.64,295.6,401,308.48C391.33,318.87,381.89,306.59,381.89,306.59Z"/><path class="cls-11" d="M416.21,323.83c13.89-18.08,38.13-28.93,66.28-38.27,0,0-13.16,44.11-30.39,50.27C435.25,340.66,416.21,323.83,416.21,323.83Z"/><path class="cls-11" d="M356.45,307s-24.69-27.7-42.8-41c0,0,3.47,32.62,14.45,41.07C339.12,314.48,356.45,307,356.45,307Z"/><path class="cls-5" d="M408.2,334.69l-1.06-.64c15.14-24.8,45.06-38.24,75.14-49.08l.42,1.17C452.84,296.9,423.14,310.23,408.2,334.69Z"/><path class="cls-5" d="M398.71,362.18l-1.24-.16a71.48,71.48,0,0,1,6.65-22.48l1.12.55A70.14,70.14,0,0,0,398.71,362.18Z"/><path class="cls-5" d="M393.24,362.15c-2.95-37.15-16.87-70.34-28-91.64l1.1-.57c11.21,21.4,25.19,54.75,28.16,92.11Z"/><path class="cls-5" d="M484.26,430.29c-.86-4.21-1.85-8.35-2.95-12.31l1.2-.33c1.1,4,2.1,8.15,3,12.39Z"/><path class="cls-5" d="M478.12,407.73c-11.21-32.21-31.31-54.45-51.21-56.67-9.62-1.07-17.81,3-23.05,11.37l-1.05-.66c5.5-8.84,14.1-13.08,24.24-11.95,20.37,2.28,40.88,24.84,52.24,57.5Z"/><path class="cls-11" d="M365.53,384.5s4.16-16.31-6.5-13.83c-24.44,6.27-12.27,67.25-6.83,69.58S405.49,411.69,389,387C379.09,371.51,365.53,384.5,365.53,384.5Z"/><path class="cls-12" d="M365.53,384.5s-10.8,34.4-13.33,55.75c5.44,2.33,53.29-28.56,36.8-53.29C379.09,371.51,365.53,384.5,365.53,384.5Z"/><path class="cls-5" d="M388.67,362.33a219.47,219.47,0,0,0-43.76-67.55l.91-.85a220.7,220.7,0,0,1,44,67.93Z"/><path class="cls-5" d="M338.77,288.51a262.26,262.26,0,0,0-25.49-22l.75-1a263.65,263.65,0,0,1,25.62,22.1Z"/><path class="cls-5" d="M353.8,433.59l-1.22-.21c.55-3.12,13.79-76.41,32.61-81.18a9.67,9.67,0,0,1,7.67,1.82c3.55,2.87,4,7.82,4,8l-1.24.1s-.44-4.64-3.57-7.17a8.49,8.49,0,0,0-6.65-1.56C367.45,358,353.94,432.84,353.8,433.59Z"/><rect class="cls-13" x="125.11" y="523.48" width="28.9" height="56.7"/><rect class="cls-13" x="163" y="510.2" width="28.9" height="69.98"/><rect class="cls-14" x="144.45" y="537.59" width="28.9" height="42.59"/><rect class="cls-10" x="138.94" y="519.95" width="1.24" height="3.53"/><rect class="cls-10" x="176.83" y="506.67" width="1.24" height="3.53"/><rect class="cls-10" x="158.28" y="534.06" width="1.24" height="3.53"/><rect class="cls-15" x="113.47" y="580.18" width="93.42" height="4.03"/><path class="cls-16" d="M251,577v-8.28a7.24,7.24,0,0,1,7.22-7.22H230a7.24,7.24,0,0,0-7.22,7.22V577a7.24,7.24,0,0,0,7.22,7.22h28.28A7.24,7.24,0,0,1,251,577Z"/><path class="cls-15" d="M258.25,561.49a7.24,7.24,0,0,0-7.22,7.22V577a7.24,7.24,0,0,0,7.22,7.22h53.67V561.49Z"/><path class="cls-17" d="M258.8,563.62a5.88,5.88,0,0,0-5.87,5.86v6.73a5.89,5.89,0,0,0,5.87,5.87h53.12V563.62Z"/><rect class="cls-16" x="265.22" y="565.8" width="44.02" height="1.24"/><rect class="cls-16" x="272.81" y="573.3" width="39.11" height="1.24"/><rect class="cls-16" x="261.12" y="573.3" width="6.27" height="1.24"/><rect class="cls-16" x="264.1" y="577.89" width="32.73" height="1.24"/><path class="cls-10" d="M277.75,695.72h-5.51L251.8,590.53h10.66Zm-4.48-1.24h3l-14.92-102.7h-8.08Z"/><path class="cls-10" d="M139.63,695.72h-5.51L149.4,590.53h10.67Zm-4.07-1.24h3l20-102.7h-8.08Z"/><path class="cls-17" d="M208.69,695.72h-5.4l-2.61-105.19h10.51l0,.64Zm-4.18-1.24h3l2.43-102.7H202Z"/><rect class="cls-9" x="90.65" y="584.21" width="230.57" height="10.27"/><rect class="cls-18" x="-230.5" y="657.5" width="1325" height="176"/><rect class="cls-19" x="768.5" y="360.5" width="72" height="24"/><rect class="cls-19" x="797.5" y="387.5" width="72" height="24"/><rect class="cls-19" x="720.5" y="395.5" width="72" height="24"/><rect class="cls-19" x="749.5" y="422.5" width="72" height="24"/><rect class="cls-19" x="16.5" y="167.5" width="72" height="24"/><rect class="cls-19" x="45.5" y="194.5" width="72" height="24"/><rect class="cls-19" x="-31.5" y="202.5" width="72" height="24"/><rect class="cls-19" x="-2.5" y="229.5" width="72" height="24"/><rect class="cls-19" x="274.5" y="2.5" width="72" height="24"/><rect class="cls-19" x="197.5" y="10.5" width="72" height="24"/><rect class="cls-19" x="226.5" y="37.5" width="72" height="24"/><ellipse class="cls-20" cx="254.5" cy="681.5" rx="144" ry="17"/><ellipse class="cls-20" cx="508.5" cy="761.5" rx="144" ry="17"/><ellipse class="cls-20" cx="771" cy="707.5" rx="160.5" ry="17"/><ellipse class="cls-20" cx="-60" cy="745.5" rx="160.5" ry="17"/><path class="cls-5" d="M624.11,717.66h-15.7l7.34-59.9h21.81ZM610,716.24H623l12.81-57H617Z"/><path class="cls-5" d="M667.59,717.66h-15.7l7.34-59.9H681Zm-14.09-1.42h13l12.8-57H660.49Z"/><polygon class="cls-21" points="656.18 565.63 1038.38 565.63 1055.73 564.2 1086.6 572.79 1096.78 590.93 1104.42 628.48 1094.55 647.58 677.42 652.35 587.36 636.44 590.54 601.12 611.11 571.52 635.73 559.43 656.18 565.63"/><polygon class="cls-12" points="1096.79 590.95 1096.78 590.93 1086.6 572.79 1055.73 564.2 1038.38 565.63 656.18 565.63 635.73 559.43 611.11 571.52 597.61 590.95 1096.79 590.95"/><path class="cls-12" d="M538.12,539.1l54.79-17.26c4.65-1.54,7.26-4.5,8.65-9.5L618,446.42c1.94-7.69,6.66-11.79,14.32-12.06h24.94l-12.77,70.89-44.15,39.14H553.07Z"/><path class="cls-12" d="M613.34,630.43V593.08c.06-5.31,2.2-10.08,7.07-12.5l35.77-5.39c6.44-28.16-13.8-53.6-37.47-51.56l-53.88,15.66-2.45,34.3,8,26.57,19.73,26.25,19.81,7.24Z"/><path class="cls-21" d="M1056.14,447.3c-2.49-8.33-8.36-12.94-17.57-12.94H656.39c-9.21,0-15.08,4.61-17.57,12.94l-19.6,82.82,37,45.07h382.2l37.36-45.07Z"/><path class="cls-5" d="M1154.46,538.66h-19.65c-3.86,0-6.39.18-8.33,5.23l-35.43,79c-3.1,5.43-7.28,8.42-15.27,8.6H619.18c-8-.18-12.17-3.17-15.27-8.6l-35.43-79c-1.94-5-4.47-5.23-8.33-5.23H540.5c-4.1,0-5.85,3.15-4.69,6.51l41.61,111.4c2.32,5.73,8.65,11,17.42,11h505.28c8.77,0,15.1-5.25,17.43-11l41.6-111.4C1160.31,541.81,1158.56,538.66,1154.46,538.66Z"/><rect class="cls-5" x="621.57" y="590.24" width="450.39" height="1.43"/><rect class="cls-5" x="563.94" y="532.39" width="44.34" height="1.43" transform="translate(-125.29 184.34) rotate(-16.17)"/><path class="cls-5" d="M67.55,747.66H51.85l-.13-.55L38.4,687.76H60.21ZM53,746.24H65.94l-7-57H40.18Z"/><path class="cls-5" d="M24.07,747.66H8.37l-.12-.55L-5.07,687.76H16.74ZM9.51,746.24h13l-7-57H-3.29Z"/><polygon class="cls-21" points="-362.82 595.63 19.38 595.63 36.73 594.2 67.6 602.79 77.78 620.93 85.42 658.48 75.55 677.58 -341.58 682.35 -431.64 666.44 -428.46 631.12 -407.89 601.52 -383.27 589.43 -362.82 595.63"/><polygon class="cls-12" points="77.78 620.95 77.78 620.93 67.6 602.79 36.73 594.2 19.38 595.63 -362.82 595.63 -383.27 589.43 -407.89 601.52 -421.39 620.95 77.78 620.95"/><path class="cls-12" d="M137.92,569.1l-54.8-17.26c-4.65-1.54-7.26-4.5-8.65-9.5L58,476.42c-1.94-7.69-6.65-11.79-14.32-12.06H18.78l12.77,70.89L75.7,574.39H123Z"/><path class="cls-12" d="M62.22,660.43V623.08c0-5.31-2.2-10.08-7.07-12.5l-35.77-5.39c-6.44-28.16,13.8-53.6,37.47-51.56l53.89,15.66,6,17.75-15.28,30.31s-7.88,32.7-7.88,33.65S88,673.68,88,673.68H67.43Z"/><path class="cls-21" d="M37.14,477.3c-2.49-8.33-8.36-12.94-17.57-12.94H-362.61c-9.21,0-15.08,4.61-17.57,12.94l-19.6,82.82,37,45.07H19.38l37.36-45.07Z"/><path class="cls-5" d="M135.46,568.66H115.81c-3.86,0-6.39.18-8.33,5.23l-35.43,79c-3.1,5.43-7.28,8.42-15.27,8.6h-456.6c-8-.18-12.17-3.17-15.27-8.6l-35.43-79c-1.94-5-4.47-5.23-8.33-5.23H-478.5c-4.1,0-5.85,3.15-4.69,6.51l41.61,111.4c2.32,5.73,8.65,11,17.42,11H81.12c8.77,0,15.1-5.25,17.43-11l41.6-111.4C141.31,571.81,139.56,568.66,135.46,568.66Z"/><rect class="cls-5" x="-397.43" y="620.24" width="450.39" height="1.43"/><rect class="cls-5" x="88" y="540.93" width="1.43" height="44.34" transform="translate(-476.76 491.08) rotate(-73.79)"/><path class="cls-6" d="M33,518.05c20.18-5.58,62.88,5.51,67.23,16.19S66.51,614.38,48,617.46s-70.31-10-70.31-20.23C-20.86,573.39,12.8,523.64,33,518.05Z"/><path class="cls-10" d="M43.41,615.37c-2.79-8.41,9.22-35.68,22.19-55.88,5.28-8.22,18.65-27.46,28.76-28.56l.16,1.41c-6.69.74-16.79,10.91-27.72,27.92-14.11,22-24.41,47.52-22,54.66Z"/><rect class="cls-6" x="373.25" y="530.98" width="266.25" height="230.73"/><polygon class="cls-8" points="544.88 594.87 467.88 605.33 467.88 530.04 544.88 530.04 544.88 594.87"/><path class="cls-22" d="M538.13,694.36v8.07l-5.1-8.07h-8a20.52,20.52,0,1,0,41,0Z"/><path class="cls-22" d="M545.52,744.13a2.59,2.59,0,0,1-2.6-2.6V714.88a2.61,2.61,0,1,1,5.21,0v26.65A2.6,2.6,0,0,1,545.52,744.13Z"/><path class="cls-22" d="M551.38,744.13H538.57a2.61,2.61,0,1,1,0-5.21h12.81a2.61,2.61,0,1,1,0,5.21Z"/><path class="cls-22" d="M620.61,744.13H586.53a2.61,2.61,0,0,1,0-5.21h34.08a2.61,2.61,0,1,1,0,5.21Z"/><path class="cls-22" d="M593.57,736.73a2.59,2.59,0,0,1-2.6-2.6V694.36a2.61,2.61,0,0,1,5.21,0v39.77A2.6,2.6,0,0,1,593.57,736.73Z"/><path class="cls-22" d="M600.61,702.89a2.58,2.58,0,0,1-1.75-.68l-5.29-4.8-5.28,4.8a2.6,2.6,0,1,1-3.51-3.85l7-6.4a2.61,2.61,0,0,1,3.5,0l7,6.4a2.6,2.6,0,0,1-1.75,4.53Z"/><path class="cls-22" d="M613.58,736.73a2.6,2.6,0,0,1-2.61-2.6V694.36a2.61,2.61,0,0,1,5.21,0v39.77A2.59,2.59,0,0,1,613.58,736.73Z"/><path class="cls-22" d="M620.62,702.89a2.58,2.58,0,0,1-1.76-.68l-5.29-4.8-5.28,4.8a2.6,2.6,0,1,1-3.5-3.85l7-6.4a2.62,2.62,0,0,1,3.51,0l7,6.4a2.61,2.61,0,0,1-1.75,4.53Z"/><path class="cls-23" d="M373.25,602.41S443.5,548.5,458.5,553.5,501.21,530,501.21,530L392.5,541.5l-19.25,24.73Z"/><path class="cls-24" d="M372.56,500.79c0-2.4,3.66-36.05,3.66-36.05,0-.22,0-.45.07-.68l.06-.62h0a63.35,63.35,0,0,1,125.84,0h0s4.93,34.52,4.93,37.35c0,.28,0,.55,0,.83s0,.64,0,1A31.66,31.66,0,0,1,477,534.2v0h-.8l-.69,0c-.24,0-.46,0-.7,0h-.41c-.24,0-.46,0-.7,0s-.45,0-.69,0H406.74l-.69,0c-.24,0-.46,0-.7,0h-1.1a31.69,31.69,0,0,1-31.69-31.69c0-.32,0-.63,0-.95s0-.54,0-.81"/><path class="cls-24" d="M503.24,473.91c0-.34,0-.68,0-1l.88-145a23.56,23.56,0,0,0-13.49-21.45L440.1,282.49l-14.92-.72-1.88-.09L408.39,281l-52.83,25.63a22.63,22.63,0,0,0-12.1,25.78L377.7,484.13s.11,0,.27.08a63.37,63.37,0,0,0,125.18-10.27h.09v0"/><path class="cls-24" d="M387.89,328a22.51,22.51,0,1,1-21.4-23.57A22.52,22.52,0,0,1,387.89,328"/><path class="cls-24" d="M376.49,470.62a63.37,63.37,0,1,0,63.37-63.38,63.37,63.37,0,0,0-63.37,63.38"/><path class="cls-24" d="M503.84,328a22.52,22.52,0,1,1-21.41-23.57A22.52,22.52,0,0,1,503.84,328"/><path class="cls-24" d="M439.86,407.25h0a63.37,63.37,0,1,1-63.37,63.37,63.37,63.37,0,0,1,63.37-63.37"/><path class="cls-24" d="M439.53,500.79a33.49,33.49,0,1,1-33.48-33.49,33.48,33.48,0,0,1,33.48,33.49"/><path class="cls-24" d="M507.16,500.79a33.49,33.49,0,1,1-33.49-33.49,33.48,33.48,0,0,1,33.49,33.49"/><path class="cls-25" d="M457.48,535.06H435.05a.79.79,0,1,1,0-1.57h22.43a.79.79,0,1,1,0,1.57Z"/><path class="cls-26" d="M439.53,500.79a33.49,33.49,0,1,1-33.48-33.49,33.48,33.48,0,0,1,33.48,33.49"/><path class="cls-26" d="M507.16,500.79a33.49,33.49,0,1,1-33.49-33.49,33.48,33.48,0,0,1,33.49,33.49"/><path class="cls-27" d="M503.24,473.91c0-.34,0-.68,0-1l.88-145a23.56,23.56,0,0,0-13.49-21.45L440.1,282.49l-14.92-.72-1.88-.09L408.39,281l-52.83,25.63a22.63,22.63,0,0,0-12.1,25.78L377.7,484.13s.11,0,.27.08a63.37,63.37,0,0,0,125.18-10.27h.09v0"/><g class="cls-28"><path class="cls-29" d="M346.26,457.27a3.15,3.15,0,0,1-.33-6.28c.42,0,42.4-4.77,57.95-24.94a26,26,0,0,0,5.31-20.72c-.87-5.74-3.09-9.78-6.62-12.1-5.65,9.52-15.83,15.88-25.43,18.29-8.28,2.08-14.67.74-17.1-3.59-.8-1.44-1.66-4.49,1.61-8.73,6-7.74,23.87-17.07,37.71-14a24.46,24.46,0,0,0,1.37-7.69c.1-5.75-2.55-10-8.1-13.09-13.61-7.51-39.14-4.44-44.5-.93a3.15,3.15,0,1,1-3.46-5.26c7.69-5,35.53-7.86,51,.68,7.58,4.18,11.5,10.65,11.35,18.71a31.24,31.24,0,0,1-1.76,9.86c4.48,2.61,8.75,7.57,10.15,16.9a32.4,32.4,0,0,1-6.55,25.52c-17.21,22.29-60.43,27.15-62.26,27.34A2,2,0,0,1,346.26,457.27Zm47.46-66.36c-.8,0-1.62,0-2.48.12-13.73,1.27-25.74,11.32-25.65,14,.58,1,4.12,1.88,10,.39,6.68-1.68,15.59-6.51,20.81-14.33A19.57,19.57,0,0,0,393.72,390.91Z"/><path class="cls-29" d="M456.85,489a3,3,0,0,1-.59-.06c-9-1.69-31-19-36.27-35.85-2.56-8.26-.9-15.64,4.79-21.35a31.42,31.42,0,0,1,8.11-5.88c-1.42-5-1.05-11.52,4.41-19.22a32.34,32.34,0,0,1,22.41-13.84c27.87-4.15,62.37,22.33,63.82,23.46a3.15,3.15,0,0,1-3.85,5c-.34-.26-33.86-26-59.06-22.21a26,26,0,0,0-18.19,11.25c-3.36,4.74-4.56,9.19-3.62,13.31,10.68-2.94,22.41-.47,31,4.45,7.41,4.24,11.09,9.64,9.83,14.44-.41,1.6-1.9,4.39-7.2,5.18-9.68,1.43-29-4.25-36.88-16.07a24.34,24.34,0,0,0-6.32,4.6c-4.06,4.06-5.12,9-3.24,15,4.6,14.86,25.13,30.35,31.42,31.53a3.15,3.15,0,0,1-.57,6.25Zm-15.1-59.6a23.09,23.09,0,0,0,3.69,3.62c10.78,8.62,26.4,9.7,28.19,7.71.25-1.09-1.67-4.21-6.95-7.23C460.71,430.12,450.93,427.43,441.75,429.44Z"/><path class="cls-29" d="M452,388a20.94,20.94,0,0,1-9-2,20.6,20.6,0,0,1-9-8.06c-.5.39-1,.74-1.48,1.06-7.51,5-12.76,2.17-15.22.07-4.64-4-7.08-11.5-7.25-22.41-.4-25.4,12.32-68.09,28.73-83a3.15,3.15,0,0,1,4.24,4.66c-13.63,12.4-27.09,51.9-26.68,78.26.14,8.77,1.93,15.06,5.05,17.72.82.7,3,2.55,7.67-.54a21.65,21.65,0,0,0,2.35-1.8c-1.63-5.72-1.66-12.71,0-20.63,2.24-10.4,8.61-25.11,15.77-25.25a7.6,7.6,0,0,1,7.7,5.64c2.88,9.28-5.85,30.25-16.19,41.77a14.5,14.5,0,0,0,6.92,6.84c16.4,7.79,42.29-19.58,50.89-30.77a3.15,3.15,0,0,1,5,3.83C500.34,355,474.7,388,452,388Zm-4.53-55.62h-.1c-2.48.79-9.71,13.28-10.73,27.08a36.79,36.79,0,0,0,.09,6.7c7.95-10.46,14.09-26.49,12.21-32.57C448.62,332.59,448.27,332.39,447.47,332.39Z"/></g><path class="cls-24" d="M387.92,326.69c1.39,32.94-20.64,129.7-20.64,129.7l-37.07-7.16,12.91-125.51Z"/><path class="cls-24" d="M332.91,461.9a18.91,18.91,0,1,0,6-26.07,18.91,18.91,0,0,0-6,26.07"/><path class="cls-24" d="M346.33,338.88a22.51,22.51,0,1,0,7.12-31,22.51,22.51,0,0,0-7.12,31"/><path class="cls-30" d="M330.21,449.24h0l8.45-118.41a26.64,26.64,0,1,1,53.25,1.51s4,58.92-25.56,126.93c-1.05,1.09-6,7.77-7.38,8.61a18.9,18.9,0,0,1-28.76-18.63"/><path class="cls-30" d="M332.91,461.9a18.91,18.91,0,1,0,6-26.07,18.91,18.91,0,0,0-6,26.07"/><path class="cls-24" d="M238.47,487.07c-2.68-6.7-8.38-11.71-15.58-12.12a29.66,29.66,0,0,0-9.89,1.26c-10.71,3.61-27.63,12-27.63,12s-4.25,2.21.58,5a12.17,12.17,0,0,0,9.77.93c6.39-2.08,5.87-4,10.9-1.75,4.55,2,10.46,12.1,23.21,8.51,7-2,10.59-8.94,8.64-13.84"/><path class="cls-24" d="M201,494.37s-17.24,12.41-25.83,20.6a4.15,4.15,0,0,0,5.46,6.25c4.94-4,17-12.87,26-17.23Z"/><path class="cls-24" d="M213.13,510.56s-16.54,10.71-29.06,22a3.82,3.82,0,0,1-5.15-5.64c4-3.73,12.94-11.5,29.29-23.6Z"/><path class="cls-24" d="M218.18,510.87s-9.84,13-13.14,23.45a3.64,3.64,0,0,0,6.82,2.52,83.16,83.16,0,0,1,12.87-20.72Z"/><path class="cls-24" d="M217.89,515.29S203,529.67,196.22,537.1a3.3,3.3,0,0,1-5-4.3c3.94-4.88,14-16.95,22-23.1Z"/><path class="cls-24" d="M221.35,520.16c-23.71-7.68-22.08-23.75-22.08-23.75,5-12,27-20.91,27-20.91l.05.09a14.1,14.1,0,0,1,1.64-.45,15.34,15.34,0,0,1,12.36,27.33h0c-7.61,6.4-19,17.68-19,17.68"/><path class="cls-24" d="M234.4,505.16a15.35,15.35,0,1,0-18.23-11.79,15.36,15.36,0,0,0,18.23,11.79"/><path class="cls-25" d="M224.32,501.88c-6.61,0-11-3.73-14.45-6.61a18.65,18.65,0,0,0-3.77-2.74c-3.12-1.38-3.7-1.1-5.87-.06a33,33,0,0,1-4.48,1.83,12.91,12.91,0,0,1-10.4-1,.77.77,0,0,1-.29-1.07.78.78,0,0,1,1.07-.29,11.38,11.38,0,0,0,9.13.87,33.84,33.84,0,0,0,4.29-1.75c2.53-1.22,3.59-1.56,7.18,0a19.52,19.52,0,0,1,4.16,3c4,3.38,9.52,8,18.52,5.49a.78.78,0,1,1,.42,1.51A20.3,20.3,0,0,1,224.32,501.88Z"/><path class="cls-24" d="M353.25,469.83A18.91,18.91,0,1,0,330.8,455.3a18.91,18.91,0,0,0,22.45,14.53"/><polygon class="cls-24" points="226.28 475.5 342.5 433.69 354.99 469.37 235.02 505.03 226.28 475.5"/><path class="cls-24" d="M234.4,505.16a15.35,15.35,0,1,0-18.23-11.79,15.36,15.36,0,0,0,18.23,11.79"/><path class="cls-13" d="M257.57,501.55l-9.26-37.05,87.24-28.77c6.11-2.49,10.92-3.71,15.22-3.24l.8.09h.09a18.89,18.89,0,0,1,10.23,32.82c-23.22,24-104.32,36.13-104.32,36.13"/><path class="cls-26" d="M375.94,467.3H502.78c1.28,9.08,4.38,31.25,4.38,33.49,0,.28,0,.55,0,.83s0,.64,0,1A31.66,31.66,0,0,1,477,534.2v0h-.8l-.69,0c-.24,0-.46,0-.7,0h-.41c-.24,0-.46,0-.7,0s-.45,0-.69,0H406.74l-.69,0c-.24,0-.46,0-.7,0h-1.1a31.69,31.69,0,0,1-31.69-31.69c0-.32,0-.63,0-.95s0-.54,0-.81c0-2,2.53-25.61,3.38-33.49"/><path class="cls-24" d="M404.68,291.57c1.2,9.84,12.75,16.53,22.6,15.33s19.45-10.46,18.25-20.3-12.75-16.53-22.59-15.34-19.46,10.47-18.26,20.31"/><polygon class="cls-24" points="445.53 286.6 404.68 291.57 402.25 249.91 437.89 245.57 445.53 286.6"/><path class="cls-24" d="M445.53,286.6c1.2,9.84-8.41,19.11-18.26,20.31s-21.39-5.5-22.59-15.34,8.42-19.11,18.26-20.3,21.39,5.49,22.59,15.33"/><path class="cls-24" d="M439.79,261.16a18,18,0,1,1-20-15.66,17.94,17.94,0,0,1,20,15.66"/><path class="cls-31" d="M438.93,254.39a18,18,0,1,1-21-14.3,18,18,0,0,1,21,14.3"/><path class="cls-32" d="M447.9,183.42a115.56,115.56,0,0,0-1.23,16c0,44.64-3.41,39.54-7.7,54l-11-65s17.2-6.71,20-5"/><path class="cls-24" d="M365,233.9c6.52,11.45,5.15,54,47.85,40.15,36.75-11.92,33.19-44,25-69.16s-31.24-40.24-51.54-33.66S345.09,199,365,233.9"/><path class="cls-32" d="M366.21,235.74s-5.22-10-12.13-23.61c-11.52-5.23-13.27-23.59-8.42-30.58,3.34-4.82,9.55-6.15,9.55-6.15s-4.11-9.32,3.35-15.84c8.23-7.19,16.94-4.05,21.27-.29,0,0,0-13.79,15.45-13C406.22,146.79,408,156,408,156s4.46-11.27,15.54-7.39c7.05,2.47,11.82,8.13,8.92,17,0,0,7.86-3.41,12.75,3.76,8.84,13-2.65,20.42-3.15,23.23-1.61,9.24-1.8,11.22-.81,20.55l-5.81,3.8s-11.49-.54-9.84-28.32c0,0-2.1,6.73-10.48,7.56-7.68.77-10.86-6.22-10.86-6.22s-.12,8-14.94,11.38C378.16,203.9,373,198,373,198a16.76,16.76,0,0,1-2.49,9.45c-5.12,8.31-8.86,9-8.86,9s2.62,11.26,4.54,19.28"/><path class="cls-25" d="M392.36,244.3a4.49,4.49,0,0,1-3.53-1.53,5.24,5.24,0,0,1-.77-5.35,6.12,6.12,0,0,1,3.44-3.52,7.77,7.77,0,0,1,5.5.33.79.79,0,1,1-.67,1.42,6.19,6.19,0,0,0-4.28-.28,4.62,4.62,0,0,0-2.54,2.67,3.68,3.68,0,0,0,.5,3.7c.84,1,2.17,1.22,3.87.76a.78.78,0,0,1,1,.55.79.79,0,0,1-.55,1A7.36,7.36,0,0,1,392.36,244.3Z"/><path class="cls-25" d="M416,220.57a4.15,4.15,0,1,1-5.61-1.89,4.18,4.18,0,0,1,5.61,1.89"/><path class="cls-25" d="M404.65,227.21a.78.78,0,0,1-.74-.54,7.15,7.15,0,0,1,4-8.67,9.15,9.15,0,0,1,7-.21,7.3,7.3,0,0,1,4,4.17.78.78,0,0,1-.43,1,.79.79,0,0,1-1-.43,5.66,5.66,0,0,0-3.14-3.3,7.69,7.69,0,0,0-5.74.2,5.61,5.61,0,0,0-3.15,6.71.79.79,0,0,1-.49,1A.8.8,0,0,1,404.65,227.21Z"/><path class="cls-25" d="M400.76,215.51a1.89,1.89,0,0,1-.89-.22,1.84,1.84,0,0,1-.72-2.5,15.73,15.73,0,0,1,10.23-7.25,14.78,14.78,0,0,1,11.78,1.88,1.84,1.84,0,0,1-2.1,3,11,11,0,0,0-8.85-1.32,12,12,0,0,0-7.84,5.45A1.86,1.86,0,0,1,400.76,215.51Z"/><path class="cls-25" d="M366.59,224.05a1.89,1.89,0,0,1-.76-.16,1.85,1.85,0,0,1-.91-2.44,11.5,11.5,0,0,1,7.52-5.93,14.11,14.11,0,0,1,11.72,1.71,1.84,1.84,0,1,1-2,3.06,10.44,10.44,0,0,0-8.68-1.24,8,8,0,0,0-5.18,3.93A1.82,1.82,0,0,1,366.59,224.05Z"/><path class="cls-25" d="M374.17,231.72a3.88,3.88,0,1,0,3.6-4.19,3.9,3.9,0,0,0-3.6,4.19"/><path class="cls-25" d="M371.42,235.87a.81.81,0,0,1-.72-.45,5.46,5.46,0,0,1,.58-5.79,8.48,8.48,0,0,1,7.3-3.31c3.71.54,5.4,2.49,7.22,5a.79.79,0,0,1-.18,1.1.77.77,0,0,1-1.09-.17c-1.71-2.34-3.06-3.9-6.18-4.35a7,7,0,0,0-5.81,2.69,3.9,3.9,0,0,0-.41,4.18.78.78,0,0,1-.38,1A.8.8,0,0,1,371.42,235.87Z"/><path class="cls-32" d="M398.57,247.42s-9.68-1.1-12.09,3.32,9.08,6.61,12.09-3.32"/><path class="cls-32" d="M401.16,246.71s7.75-5.88,12.08-3.31-4.43,10.31-12.08,3.31"/><path class="cls-24" d="M451.34,222c1.55,6.36-4.2,13.22-10,14.65s-5.45-1.91-7-8.27-2.35-10.55-1.37-12.79c3.65-8.32,15.61-5.1,18.42,6.41"/><path class="cls-17" d="M418.45,250.92c-6.55,5.54-18.09,8.56-21.87,9.44a28.22,28.22,0,0,1-1.91-3.17s15.55-3.13,23.42-9.95a10.57,10.57,0,0,1,.36,3.68"/><path class="cls-33" d="M418.45,250.92a22.12,22.12,0,0,1-2,8.16c-1.72,3.9-11.57,13.16-19.88,1.28,3.78-.88,15.32-3.9,21.87-9.44"/><path class="cls-24" d="M228.05,537.77a27.13,27.13,0,0,1,1.27-15.46s0,0,0,0c.31-.77.64-1.52,1-2.26l.1-.18c.35-.69.73-1.37,1.14-2l.2-.3c.39-.61.8-1.21,1.24-1.79l.34-.42c.42-.52.84-1,1.29-1.54l.52-.51c.42-.44.85-.88,1.3-1.29.23-.21.49-.4.72-.6.42-.35.84-.71,1.28-1s.64-.43,1-.64.8-.56,1.22-.81.81-.44,1.21-.66.74-.42,1.13-.6,1-.44,1.55-.65c.32-.12.62-.27.94-.39.86-.3,1.74-.57,2.64-.79a26.07,26.07,0,0,1,2.69-.53l1-.09c.57-.06,1.15-.13,1.72-.16h1.18c.49,0,1,0,1.46,0s.88.09,1.33.13.84.07,1.25.14,1,.18,1.44.27.72.14,1.08.23c.52.13,1,.29,1.54.45.29.09.59.17.89.28.55.19,1.08.41,1.61.63.24.11.49.2.72.31.57.26,1.12.55,1.67.85.19.1.38.19.56.3.58.33,1.14.69,1.7,1.06l.4.27c.59.41,1.15.85,1.7,1.3l.27.22c.58.49,1.13,1,1.66,1.53l.17.17c.55.56,1.08,1.15,1.58,1.76l.09.11c.52.63,1,1.29,1.47,2l0,.06c.47.7.9,1.42,1.31,2.17v0a26.52,26.52,0,0,1,2,4.83h0l.15.61c.09.33.21.65.3,1s.14.74.21,1.11L335.24,740.6a20.84,20.84,0,1,1-39.76,12.49l-6.24-19.88-61.35-195.4Z"/><path class="cls-24" d="M295.48,753.09A20.84,20.84,0,1,0,309.12,727a20.85,20.85,0,0,0-13.64,26.13"/><path class="cls-24" d="M228.69,540.37a27.25,27.25,0,1,0,17.84-34.16,27.26,27.26,0,0,0-17.84,34.16"/><path class="cls-26" d="M218.17,533.43c0-.13,0-.26,0-.4,0-.8,0-1.61,0-2.41,0-.3,0-.61,0-.91,0-.74.13-1.47.23-2.19q.06-.54.15-1.08c.12-.69.25-1.39.4-2.07.08-.37.18-.74.27-1.11.17-.67.35-1.34.56-2,.11-.34.23-.67.35-1a36.29,36.29,0,0,1,2.28-5.23l.08-.14h0a36.25,36.25,0,0,1,6.2-8.34l.56-.53h0c.57-.54,1.13-1.09,1.73-1.6.37-.31.77-.59,1.15-.89h0c.54-.42,1.07-.86,1.64-1.25h0c.36-.25.74-.47,1.12-.7.64-.4,1.26-.82,1.92-1.19h0c.66-.36,1.34-.66,2-1l0,0a36.22,36.22,0,0,1,50.39,22s0,.08,0,.12.07.16.1.25l.21.66.08.39.36,1.57c.06.29.14.57.2.86l.11.49.25,1.13.15.63,0,.06,47.32,182.89-67.11,15.76L219.64,542.61v-.14h0a36.34,36.34,0,0,1-1.45-9"/><path class="cls-26" d="M219.39,541.27a36.45,36.45,0,1,0,26.24-44.36,36.45,36.45,0,0,0-26.24,44.36"/><path class="cls-24" d="M313,725.85a61.49,61.49,0,0,0-29.58,8.58c-7.48,4.42-19,9.22-34.92,10.36-31.06,2.23-38.41,26.64-38.13,37l127.34-3.46-.85-31.18a21.94,21.94,0,0,0-22.53-21.33Z"/><path class="cls-24" d="M294.6,747.19a20.84,20.84,0,1,0,20.27-21.4,20.84,20.84,0,0,0-20.27,21.4"/><path class="cls-34" d="M272.1,731.66c-4.86,6-25.84,12.47-35.2,13.78-16,2.25-28.93,13.91-28.49,30.09l.3,11,132-3.59-.3-11-1.05-38.86Z"/><path class="cls-25" d="M240.13,760a.81.81,0,0,1-.31-.06c-4.16-1.8-11.31-7-8.68-13.88,1.5-3.94,4.92-6.11,9.4-6a14.79,14.79,0,0,1,5.11,1.12c.44-4.19,2.31-8.64,8.25-9.73a7.76,7.76,0,0,1,7.86,3c3.09,3.91,3.68,10.27,2.82,12.23a.78.78,0,0,1-1,.4.77.77,0,0,1-.4-1c.61-1.41.08-7.21-2.62-10.63a6.18,6.18,0,0,0-6.34-2.43c-4.33.79-6.61,3.67-7,8.92a11.88,11.88,0,0,1,5.87,6.42,3.6,3.6,0,0,1-.71,3.8,3.22,3.22,0,0,1-3.33.65c-1.69-.59-2.83-2.27-3.13-4.61a33.06,33.06,0,0,1-.35-5.35,13.59,13.59,0,0,0-5-1.2,7.64,7.64,0,0,0-7.89,5c-2.74,7.18,7.74,11.83,7.84,11.88a.78.78,0,0,1-.31,1.5Zm7-16.3a34.25,34.25,0,0,0,.31,4.31c.31,2.45,1.57,3.14,2.09,3.32a1.64,1.64,0,0,0,1.72-.29,2.07,2.07,0,0,0,.29-2.2A9.89,9.89,0,0,0,247.14,743.7Z"/><path class="cls-25" d="M208.41,776.31a.79.79,0,0,1,0-1.57l132-3.59a.83.83,0,0,1,.81.77.79.79,0,0,1-.77.81l-132,3.58Z"/><path class="cls-13" d="M369.88,531.52,326.55,518,338,329.53a26.54,26.54,0,0,1,12.52-21.74L400,283.59l.4,21.53Z"/><path class="cls-13" d="M337.94,331.73a26.66,26.66,0,1,0,25.35-27.91,26.66,26.66,0,0,0-25.35,27.91"/><polygon class="cls-26" points="404.01 280.54 403.33 304.1 382 314.26 391.01 286.63 404.01 280.54"/><path class="cls-25" d="M341,460.64h-.07a.79.79,0,0,1-.71-.86L352.58,327a.79.79,0,0,1,1.57.15l-12.37,132.8A.79.79,0,0,1,341,460.64Z"/><path class="cls-24" d="M247,506.07a23.21,23.21,0,0,1,2.26-.55l.27-.06h0l147-37.25,1.08-.27.76-.19v0a33.46,33.46,0,1,1,11.81,65.85h0L260.07,558.91l-.65.13h0l-.4.08v0a27.05,27.05,0,0,1-14.23-1.52l-.3-.11c-.58-.24-1.14-.5-1.71-.78-.19-.09-.39-.18-.59-.29-.5-.25-1-.53-1.46-.82-.25-.15-.5-.29-.74-.45-.43-.28-.85-.57-1.27-.87l-.81-.61c-.37-.29-.74-.59-1.1-.91L236,552c-.32-.31-.64-.62-.95-.94s-.56-.62-.84-.93-.55-.64-.81-1-.55-.72-.81-1.09-.47-.64-.69-1-.51-.85-.76-1.28-.37-.63-.54-.95c-.27-.51-.5-1-.73-1.56-.13-.28-.27-.55-.38-.83-.33-.82-.63-1.67-.89-2.54a27.23,27.23,0,0,1,3.57-23,27.44,27.44,0,0,1,3.34-4.05,27,27,0,0,1,8.9-5.9,24.72,24.72,0,0,1,2.63-.92"/><path class="cls-24" d="M245.41,506.59a27.25,27.25,0,1,0,34.9,16.33,27.25,27.25,0,0,0-34.9-16.33"/><path class="cls-24" d="M416.58,532a33.49,33.49,0,1,1,20.07-42.89A33.49,33.49,0,0,1,416.58,532"/><path class="cls-26" d="M242.17,498l.19-.07h.08c1.23-.42,84.33-26.22,156.58-31.09,16.1-1.09,32,5.8,37.68,21.46,6.3,17.39-2.64,37.39-20,43.7A35,35,0,0,1,413,533v0L265.65,567l-.4.09-1.84.51-.45.13-.58.16c-.9.21-1.8.35-2.7.49-.69.1-1.37.15-2.06.22-.45,0-.89.1-1.34.13h0c-.85,0-1.7,0-2.55,0H253c-1.14,0-2.27-.13-3.39-.28l-.72-.07-.2,0c-1.05-.17-2.1-.37-3.12-.63h0c-.83-.21-1.65-.47-2.47-.73h0l-.76-.23c-.47-.17-.92-.36-1.38-.54s-.79-.31-1.17-.48c-.63-.28-1.25-.57-1.87-.88h0c-.58-.29-1.15-.58-1.71-.9h0a39,39,0,0,1-3.86-2.55c-.37-.28-.72-.58-1.08-.87h0c-.53-.43-1.06-.86-1.57-1.32h0q-1.26-1.15-2.43-2.43c-.27-.3-.52-.62-.78-.93h0c-.59-.69-1.16-1.4-1.7-2.15-.17-.22-.31-.46-.47-.69-.41-.59-.83-1.18-1.2-1.8a.39.39,0,0,1-.06-.11c-.59-1-1.14-2-1.64-3s-1-2.17-1.39-3.31h0a36.45,36.45,0,0,1,21.84-46.69l.36-.11"/><path class="cls-24" d="M319.2,535.3c.7-.36,1.41-.67,2.13-1l.25-.11h0l137.6-63.64,1-.47.71-.32,0,0a33.47,33.47,0,1,1,23.72,62.56h0L341.77,584.83l-.6.25h0l-.39.15v0a27.14,27.14,0,0,1-14.27,1.11l-.31-.05c-.61-.12-1.22-.28-1.83-.45l-.63-.17c-.53-.16-1.06-.35-1.58-.54l-.82-.31c-.47-.19-.94-.4-1.4-.62s-.61-.29-.91-.45-.84-.45-1.25-.69-.65-.39-1-.6-.75-.49-1.11-.75-.67-.5-1-.76-.66-.52-1-.79-.67-.61-1-.93-.57-.54-.84-.83-.67-.74-1-1.12-.48-.54-.71-.83c-.35-.45-.68-.93-1-1.4-.18-.25-.36-.49-.53-.75-.48-.74-.92-1.52-1.34-2.32a27.3,27.3,0,0,1-.72-23.24,27.76,27.76,0,0,1,2.54-4.59,27,27,0,0,1,7.66-7.44,26.17,26.17,0,0,1,2.42-1.39"/><path class="cls-24" d="M317.74,536.1a27.25,27.25,0,1,0,37.32,9.63,27.24,27.24,0,0,0-37.32-9.63"/><path class="cls-24" d="M490.66,529.6a33.48,33.48,0,1,1,11.84-45.85,33.49,33.49,0,0,1-11.84,45.85"/><path class="cls-26" d="M313,528.24l.17-.11.07,0h0c1.14-.64,78.08-41.28,148.2-59.35,15.63-4,32.52-.19,41,14.16,9.4,15.93,4.29,37.24-11.65,46.64a32.54,32.54,0,0,1-3.38,1.72l-139,60.66-1.72.84h0l-.41.21-.55.26c-.85.37-1.7.68-2.56,1-.66.23-1.32.4-2,.6-.43.12-.86.26-1.29.37h0c-.83.2-1.66.35-2.5.49l-.76.15h0c-1.13.16-2.25.28-3.38.34l-.72.06h-.21c-1.07,0-2.13,0-3.19,0h0c-.86-.05-1.71-.16-2.56-.27h0l-.8-.09h0c-.48-.07-1-.18-1.45-.27s-.83-.16-1.24-.26c-.67-.15-1.33-.32-2-.51h0c-.63-.17-1.24-.36-1.86-.57a35.36,35.36,0,0,1-4.27-1.79c-.41-.21-.81-.44-1.21-.66h0c-.61-.33-1.21-.65-1.79-1h0c-1-.61-1.92-1.25-2.84-2-.32-.25-.63-.52-.94-.77h0c-.71-.57-1.4-1.16-2.07-1.8l-.59-.59c-.51-.51-1-1-1.51-1.55l-.08-.09c-.75-.86-1.48-1.74-2.16-2.68s-1.36-1.95-2-3h0a36.44,36.44,0,0,1,12.89-49.9c.11-.07.22-.11.33-.17"/><path class="cls-17" d="M497.24,510.51h-.05c-31.66-1.6-35.63-30.46-35.67-30.75a.79.79,0,0,1,1.56-.2c.14,1.14,3.87,27.85,34.19,29.38a.79.79,0,0,1,0,1.57Z"/><polygon class="cls-35" points="361.23 514.02 214.45 514.02 288.92 465.98 435.69 465.98 361.23 514.02"/><path class="cls-34" d="M361.23,514H220.38a10.67,10.67,0,0,1-9.06-5l-56.44-90.76a4.73,4.73,0,0,1,4-7.22H291.06a11,11,0,0,1,9.35,5.19Z"/><path class="cls-13" d="M440,306.52,436,527.19l82.33-7.05-8.48-193.3a26.54,26.54,0,0,0-14.55-20.44l-46.8-20.09Z"/><polygon class="cls-26" points="444.36 278.71 437.77 306.07 462.03 317.1 458.98 289.68 444.36 278.71"/><path class="cls-30" d="M510.06,329a26.66,26.66,0,1,1-27.91-25.34A26.67,26.67,0,0,1,510.06,329"/><path class="cls-24" d="M504,320c10.46,31.26,16.08,130.34,16.08,130.34l-37.61,3.38L460.16,329.53Z"/><path class="cls-24" d="M488.6,465.14a18.91,18.91,0,1,0-1.47-26.7,18.91,18.91,0,0,0,1.47,26.7"/><path class="cls-24" d="M467.44,343.21a22.51,22.51,0,1,0-1.75-31.79,22.52,22.52,0,0,0,1.75,31.79"/><path class="cls-13" d="M482.5,453.72h0L457.84,337.6a26.64,26.64,0,1,1,51.59-13.29s20.11,55.51,10.57,129c-.7,1.34-3.64,9.13-4.7,10.32a18.9,18.9,0,0,1-32.8-9.95"/><path class="cls-30" d="M488.6,465.14a18.91,18.91,0,1,0-1.47-26.7,18.91,18.91,0,0,0,1.47,26.7"/><path class="cls-24" d="M356.13,572.29A27,27,0,0,0,359,557.05a.43.43,0,0,0,0,0c-.09-.83-.21-1.65-.37-2.46,0-.06,0-.13,0-.19-.16-.76-.34-1.52-.56-2.26l-.12-.34c-.21-.7-.44-1.39-.71-2.06-.07-.17-.15-.33-.22-.49-.26-.62-.53-1.23-.84-1.83-.11-.22-.24-.42-.36-.64-.29-.53-.58-1.07-.91-1.58-.17-.27-.36-.51-.54-.77-.31-.46-.62-.91-1-1.35s-.49-.58-.74-.87-.62-.75-1-1.11-.66-.64-1-.95-.6-.6-.93-.88-.87-.7-1.32-1c-.27-.21-.53-.43-.8-.62-.75-.53-1.53-1-2.34-1.48s-1.62-.85-2.45-1.22l-.88-.34c-.54-.21-1.08-.43-1.62-.61-.38-.12-.76-.21-1.14-.31s-.94-.28-1.41-.38-.88-.16-1.31-.23-.83-.15-1.25-.2-1-.09-1.46-.12-.73-.06-1.1-.07c-.53,0-1.07,0-1.6,0l-.93,0c-.58,0-1.16.11-1.73.19l-.78.1c-.61.1-1.22.23-1.83.37l-.62.14c-.65.17-1.28.37-1.92.58l-.46.15c-.67.24-1.33.51-2,.8l-.32.14c-.69.32-1.36.66-2,1l-.21.11c-.68.4-1.34.82-2,1.28l-.12.08c-.67.47-1.31,1-1.94,1.51l-.05,0c-.64.55-1.25,1.13-1.84,1.74v0a26.39,26.39,0,0,0-3.26,4.12h0l0,0-.31.55c-.18.3-.38.57-.55.88s-.34.67-.51,1L198.8,739.25a20.84,20.84,0,1,0,35,22.63l11.31-17.5,111.16-172Z"/><path class="cls-24" d="M233.8,761.88a20.84,20.84,0,1,1-6.19-28.82,20.84,20.84,0,0,1,6.19,28.82"/><path class="cls-24" d="M354.82,574.62a27.25,27.25,0,1,1-8.1-37.68,27.24,27.24,0,0,1,8.1,37.68"/><path class="cls-26" d="M366.8,570.73l.13-.37c.23-.78.42-1.56.6-2.34.07-.3.14-.59.2-.89.15-.72.27-1.45.37-2.17,0-.36.09-.72.13-1.08.08-.7.14-1.4.17-2.1,0-.38,0-.76,0-1.14,0-.7,0-1.39,0-2.09,0-.35-.05-.71-.07-1.06a37.13,37.13,0,0,0-.8-5.65c0-.05,0-.1-.05-.16h0a36.29,36.29,0,0,0-3.76-9.68l-.4-.66v0c-.4-.67-.79-1.35-1.24-2h0c-.27-.4-.58-.77-.87-1.16h0c-.41-.56-.81-1.12-1.26-1.65h0c-.28-.34-.59-.65-.89-1-.5-.56-1-1.13-1.53-1.66s-1.12-1-1.69-1.49l0,0a36,36,0,0,0-4-3.06,36.45,36.45,0,0,0-50.4,10.82.6.6,0,0,1-.06.11c-.05.07-.11.14-.16.22l-.37.58-.18.35-.77,1.42c-.14.26-.29.51-.42.77l-.24.44-.54,1-.31.57,0,0-91.62,158.4,52.57,46L363,579.2l0-.1v0h0a36.61,36.61,0,0,0,3.79-8.33"/><path class="cls-26" d="M363.54,578a36.45,36.45,0,1,1-13.48-49.75A36.45,36.45,0,0,1,363.54,578"/><path class="cls-17" d="M301.2,541.23a.78.78,0,0,1-.22,0,.77.77,0,0,1-.51-.48.79.79,0,0,1,.07-.7l.66.42-.66-.43c.58-.9,5.83-9,11.72-12.29l.19-.09.53.6-.3-.74.22-.11a895.93,895.93,0,0,1,83.67-38,.8.8,0,0,1,1,.45.79.79,0,0,1-.45,1,897.36,897.36,0,0,0-83.53,37.92l-.19.08-.27.16c-5.76,3.25-11.06,11.48-11.28,11.83A.81.81,0,0,1,301.2,541.23Z"/><path class="cls-17" d="M252.76,625.19a.78.78,0,0,1-.68-1.18l46.69-80.81.27-.51,1.5-2.67.12-.17a.85.85,0,0,1,1.13-.32.71.71,0,0,1,.3,1,2.31,2.31,0,0,1-.19.28l-.55.92-.93,1.72a5.2,5.2,0,0,0-.25.46L299.05,546,253.44,624.8A.78.78,0,0,1,252.76,625.19Z"/><path class="cls-24" d="M222.64,729.66a61.49,61.49,0,0,0-30.55-3.89c-8.61,1.08-21.11.89-36.16-4.39-29.38-10.31-45.83,9.16-49.69,18.79l118.2,47.47,11.62-28.94a21.94,21.94,0,0,0-12.18-28.54Z"/><path class="cls-24" d="M197.24,741.91a20.84,20.84,0,1,0,27.1-11.57,20.83,20.83,0,0,0-27.1,11.57"/><path class="cls-34" d="M182.77,718.71c-6.84,3.56-28.67,1.16-37.77-1.36-15.6-4.31-32.08,1.26-38.11,16.27L102.8,743.8,225.32,793l4.08-10.18,14.49-36.07Z"/><path class="cls-25" d="M142.48,732.06a.79.79,0,0,1-.58-.25c-3.09-3.3-7.58-10.94-2.44-16.19,2.95-3,7-3.64,11-1.73A14.72,14.72,0,0,1,154.7,717c2.07-3.67,5.56-7,11.44-5.65a7.77,7.77,0,0,1,6,5.88c1.28,4.83-.71,10.9-2.28,12.35a.79.79,0,1,1-1.07-1.15c1.12-1,2.95-6.58,1.83-10.79a6.19,6.19,0,0,0-4.85-4.75c-4.29-1-7.53.73-10,5.4a11.88,11.88,0,0,1,2.82,8.22,3.61,3.61,0,0,1-2.16,3.21,3.2,3.2,0,0,1-3.31-.73c-1.31-1.22-1.69-3.21-1-5.47a32.73,32.73,0,0,1,1.81-5.05,13.51,13.51,0,0,0-4.16-3.11c-2-.94-5.85-2-9.2,1.41-5.38,5.5,2.38,13.93,2.46,14a.79.79,0,0,1,0,1.11A.82.82,0,0,1,142.48,732.06Zm12.6-12.23a34.76,34.76,0,0,0-1.43,4.07c-.68,2.38.19,3.51.6,3.89a1.66,1.66,0,0,0,1.69.41,2.1,2.1,0,0,0,1.15-1.9A9.87,9.87,0,0,0,155.08,719.83Z"/><path class="cls-25" d="M229.4,783.62a.75.75,0,0,1-.29-.06L106.6,734.35a.78.78,0,0,1-.44-1,.79.79,0,0,1,1-.44L229.7,782.1a.78.78,0,0,1,.43,1A.79.79,0,0,1,229.4,783.62Z"/><path class="cls-24" d="M392.61,497.42c-1.58-7-6.41-12.89-13.46-14.43a29.61,29.61,0,0,0-10-.33C358,484.53,340,490.19,340,490.19s-4.55,1.51-.22,5a12.18,12.18,0,0,0,9.5,2.47c6.64-1,6.43-3,11,0,4.17,2.7,8.41,13.6,21.58,12.07,7.2-.84,11.86-7.16,10.71-12.3"/><path class="cls-24" d="M358.5,512.52s-21.24.63-33-.65a4.16,4.16,0,0,1,.55-8.29c6.33.16,21.35-.13,31.09-2.09Z"/><path class="cls-24" d="M361.49,509.58s-19.25,4.26-36.05,5.26a3.82,3.82,0,0,0,.39,7.63c5.48-.25,17.28-1.14,37.37-4.27Z"/><path class="cls-24" d="M368.64,523.05s-15.34,5.59-26.28,5.67a3.64,3.64,0,0,1-.41-7.25,83.72,83.72,0,0,0,23.59-6.22Z"/><path class="cls-24" d="M363.49,515.34s-20.09,5-30,6.84a3.31,3.31,0,0,0,1,6.54c6.23-.77,21.81-2.94,31.25-6.47Z"/><path class="cls-24" d="M355.91,501.52c-5.16,24.8,6.51,23,6.51,23,13-1.12,35.17-10.68,35.17-10.68l2.28-3.45a12.39,12.39,0,0,0,.93-1.42,15.34,15.34,0,0,0-22.26-20.1h0c-8.41,5.3-22.62,12.71-22.62,12.71"/><path class="cls-24" d="M379.23,488.34a15.35,15.35,0,1,1-4.69,21.2,15.35,15.35,0,0,1,4.69-21.2"/><path class="cls-24" d="M507,469.06a18.91,18.91,0,1,0-23.78-12.24A18.91,18.91,0,0,0,507,469.06"/><polygon class="cls-24" points="381.18 487.2 492.72 434.16 508.66 468.43 392.79 515.73 381.18 487.2"/><path class="cls-24" d="M392.18,515.92a15.35,15.35,0,1,0-19.3-9.94,15.35,15.35,0,0,0,19.3,9.94"/><path class="cls-13" d="M414.88,510.05l-12.86-36,84-37.21c5.84-3.09,10.51-4.78,14.84-4.72.26,0,.53,0,.79,0h.11a18.88,18.88,0,0,1,13.4,31.65c-6.12,9.1-100.26,46.23-100.26,46.23"/><path class="cls-25" d="M462,491.39a.79.79,0,0,1-.29-1.52c.41-.16,41.28-16.33,48.94-23.71a.79.79,0,1,1,1.09,1.13c-7.88,7.6-47.76,23.37-49.45,24A.75.75,0,0,1,462,491.39Z"/><path class="cls-25" d="M402.88,475.15l8.47-3.83,19.84-9L454,452.07l17.36-7.85c1.34-.6,2.7-1.18,4-1.81a1.34,1.34,0,0,0,.7-.52,10.53,10.53,0,0,0,.87-2,35.51,35.51,0,0,0,1.21-3.37,11.51,11.51,0,0,0,.24-5.93q-.58-2.85-1.19-5.7Q475.12,415,473,405l-5.31-24.93q-2.39-11.19-4.78-22.37l-2.61-12.2-.12-.57c-.2-.94-1.65-.54-1.45.4l1.8,8.39q2.16,10.14,4.33,20.26,2.65,12.43,5.3,24.88,2.33,10.9,4.63,21.83c.81,3.84,1.74,7.68,2.4,11.54a8.69,8.69,0,0,1-.47,3.91,34.06,34.06,0,0,1-1.22,3.38,16.44,16.44,0,0,0-.74,1.66c.11-.39.41-.23.11-.19a1.75,1.75,0,0,0-.44.2l-1.66.75-15,6.79-22.11,10-21.06,9.51-11.86,5.35-.57.26c-.88.4-.12,1.69.76,1.3Z"/><path class="cls-8" d="M240.5,323.5a38,38,0,1,0-38,38v20l5-20.33A38,38,0,0,0,240.5,323.5Z"/><path class="cls-8" d="M105.5,342.5a38.91,38.91,0,0,0,14.16-2.66L149.5,377.5l-22.64-41.38a39,39,0,1,0-21.36,6.38Z"/><path class="cls-8" d="M123.38,403.55a38,38,0,1,0,.07,4.82l31.05-.87Z"/><rect class="cls-19" x="474.5" y="34.5" width="72" height="24"/><rect class="cls-19" x="503.5" y="61.5" width="72" height="24"/><rect class="cls-19" x="426.5" y="69.5" width="72" height="24"/><rect class="cls-19" x="455.5" y="96.5" width="72" height="24"/><path class="cls-36" d="M106.37,322.22c-5.78,0-11.56,0-17.33,0a1.33,1.33,0,0,1-1.45-1.44c0-6.27,0-12.54,0-18.81a.49.49,0,0,0-.31-.5,6.41,6.41,0,0,1-3.55-5.64A1.82,1.82,0,0,1,84,295q3.27-5.79,6.56-11.58a1.3,1.3,0,0,1,1.23-.71H121a1.28,1.28,0,0,1,1.22.72q3.3,5.81,6.6,11.59a2.05,2.05,0,0,1,.17,1.33,6.47,6.47,0,0,1-3.53,5.18.5.5,0,0,0-.32.52c0,6.29,0,12.58,0,18.87a1.28,1.28,0,0,1-.43,1.06,1.33,1.33,0,0,1-.92.28H106.37ZM95.64,299.46A6.63,6.63,0,0,1,90,302.23v17.6h3.74v-.38c0-3.81,0-7.62,0-11.42a3.85,3.85,0,0,1,3.91-3.91h3.14a4,4,0,0,1,.6,0,3.85,3.85,0,0,1,3.3,3.87v11.79h18v-17.6a6.61,6.61,0,0,1-5.63-2.77,6.58,6.58,0,0,1-10.71,0A6.62,6.62,0,0,1,95.64,299.46Zm29.9-5.34c-.05-.09-.06-.13-.09-.17l-4.93-8.69a.35.35,0,0,0-.37-.2H92.6a.4.4,0,0,0-.41.23l-4.88,8.62a1,1,0,0,0-.09.21Zm-29.41,25.7h6.17a2.09,2.09,0,0,0,0-.24c0-3.85,0-7.69,0-11.54a1.45,1.45,0,0,0-1.53-1.53c-1,0-2,0-3,0a1.59,1.59,0,0,0-1.7,1.68c0,3.75,0,7.5,0,11.25Zm22.28-23.3c0,1.57,2,3.23,3.82,3.31a4.1,4.1,0,0,0,4.28-3.31Zm-24.06,0H86.24a4.14,4.14,0,0,0,8.11,0Zm10.72,0H97c.07,1.6,1.93,3.2,3.83,3.31A4.13,4.13,0,0,0,105.07,296.51Zm2.6,0a4.15,4.15,0,0,0,4.4,3.3c1.88-.19,3.73-1.84,3.69-3.3Z"/><path class="cls-36" d="M112.8,304.12h3a3.12,3.12,0,0,1,3.19,3.2v4.56a3.12,3.12,0,0,1-3.18,3.19h-6a3.1,3.1,0,0,1-3.19-3.2q0-2.28,0-4.56a3.11,3.11,0,0,1,3.17-3.19Zm0,8.57h3a.75.75,0,0,0,.84-.84q0-2.25,0-4.5a.75.75,0,0,0-.84-.84h-5.92a.75.75,0,0,0-.85.86v4.44a.77.77,0,0,0,.87.88Z"/><path class="cls-36" d="M184.86,335.88a1.26,1.26,0,0,1,.69-1.21,1.15,1.15,0,0,1,1.32.14,12,12,0,0,1,1.12,1.13,1.2,1.2,0,0,1-.05,1.62,1.24,1.24,0,0,1-1.65.11,11.64,11.64,0,0,1-1.16-1.17A2,2,0,0,1,184.86,335.88Z"/><path class="cls-36" d="M194.72,347a1.06,1.06,0,0,0,1.36-.23l.28-.3,4.2-4.58a.68.68,0,0,1,.56-.24c.54,0,1,0,1.5-.05a12.1,12.1,0,0,0,5.44-1.63,13,13,0,0,0,4-3.74.73.73,0,0,1,.62-.34h0c.59,0,1.16,0,1.8,0a3.93,3.93,0,0,0,4-4.14c0-.48,0-.56.53-.63a1.85,1.85,0,0,0,1.11-.56l.16-.19c.62-.7,1.26-1.42,1.87-2.16a2.89,2.89,0,0,0,.55-2.72,3.33,3.33,0,0,0-1.25-1.71.43.43,0,0,1-.2-.29.4.4,0,0,1,.14-.31l.79-.91a3,3,0,0,0,.62-2.79,3.17,3.17,0,0,0-1.2-1.72.43.43,0,0,1-.19-.29.38.38,0,0,1,.14-.31l.31-.35a2.75,2.75,0,0,1,.22-.26,3,3,0,0,0,.05-4.13,4.6,4.6,0,0,0-.56-.52l-.06,0a.38.38,0,0,1-.16-.28.4.4,0,0,1,.14-.27l.47-.43A3.08,3.08,0,0,0,223,308a3.62,3.62,0,0,0-1.44-2.2,3.21,3.21,0,0,0-2.42-.61.5.5,0,0,1-.42,0c-.1-.09-.1-.23-.1-.41v-.6c0-.61,0-1.22,0-1.82a3.89,3.89,0,0,0-3.87-3.83H198.5a4.56,4.56,0,0,0-.75.06,4,4,0,0,0-3.2,3.76v8a.58.58,0,0,1-.37.62,2.31,2.31,0,0,0-1.24,1.41c-.15.45-.29.91-.43,1.37l-.24.79c-.18.57-.35,1.14-.52,1.72-.4,1.32-.81,2.68-1.29,4a16.93,16.93,0,0,0-1.07,5.51c0,.53,0,1.07,0,1.6,0,.3,0,.59,0,.88a2,2,0,0,1-.34,1.1c-.2.3-.38.61-.57.91l-.3.48a1.82,1.82,0,0,1-.14.19l-.23.3-.34-.38-.41-.48a1.1,1.1,0,0,0-.79-.41,1.32,1.32,0,0,0-1,.41c-1.1,1.13-2.23,2.26-3.33,3.35l-1.18,1.17a1.26,1.26,0,0,0-.44.87,1.28,1.28,0,0,0,.44.88l7.46,7.45a1.11,1.11,0,0,0,1.56.05,1.06,1.06,0,0,0,0-1.54l-1.25-1.25-1.5-1.49c-1.26-1.26-2.52-2.53-3.79-3.79a.4.4,0,0,1-.16-.32.38.38,0,0,1,.17-.3l.65-.64.09-.1c.51-.51,1-1,1.53-1.56l.63-.64.23.21.15.14,5.46,5.46,4.41,4.39a.38.38,0,0,1,0,.6c-.59.64-1.19,1.31-1.79,2a1.37,1.37,0,0,0-.25.41A1.06,1.06,0,0,0,194.72,347Zm21.76-15.05a1.82,1.82,0,0,1-1.84,1.82H200.81a.48.48,0,0,1-.38-.11.53.53,0,0,1-.1-.39c.06-.91,0-1.84,0-2.71a.39.39,0,0,1,.1-.3.41.41,0,0,1,.31-.09h15.06c.27,0,.42,0,.52.1s.11.25.1.51v1.16Zm4.34-5.52-.06.14a1.86,1.86,0,0,1-.18.34l-.93,1.07-.72.83a.5.5,0,0,1-.35.19.4.4,0,0,1-.24-.09c-.37-.28-.67-.53-.93-.77a.46.46,0,0,1,0-.7c.38-.42.75-.86,1.13-1.29l.43-.49a.88.88,0,0,1,1-.32,1.32,1.32,0,0,1,.8,1v.05Zm-.23-5.44c-.58.65-1.1,1.24-1.57,1.81a.52.52,0,0,1-.4.21.63.63,0,0,1-.27-.08,2.41,2.41,0,0,1-1-.88.45.45,0,0,1,.05-.6c.21-.25.43-.5.65-.74s.67-.79,1-1.17a1.52,1.52,0,0,1,.41-.27l.1-.06,0,0h.05a1.31,1.31,0,0,1,1.12.73A.9.9,0,0,1,220.59,321Zm.35-6.46,0,0-.07.14a1.19,1.19,0,0,1-.19.35c-.57.68-1.14,1.33-1.69,1.94a.62.62,0,0,1-.39.15.27.27,0,0,1-.13,0,2.35,2.35,0,0,1-1.11-.93.43.43,0,0,1,0-.58c.2-.23.39-.46.59-.68.37-.43.75-.87,1.14-1.28a1,1,0,0,1,.65-.28h0a1.29,1.29,0,0,1,1.13,1.1Zm-4-5.05.85-.79,1.16-1.09a2,2,0,0,1,.41-.24l.11,0,0,0h.05a1.49,1.49,0,0,1,1.28.92,1,1,0,0,1-.33,1.25l-.63.6-1.23,1.16a.54.54,0,0,1-.38.18.58.58,0,0,1-.3-.09,3,3,0,0,1-1.14-1.24A.48.48,0,0,1,216.9,309.45Zm-20.22-7a1.66,1.66,0,0,1,.76-1.47,2.08,2.08,0,0,1,1-.33c1,0,2.09,0,3.11,0H212c.86,0,1.75,0,2.62,0a2,2,0,0,1,1.33.53,1.73,1.73,0,0,1,.54,1.26v.22c0,.3,0,.45-.1.55a.41.41,0,0,1-.32.09H197.24c-.23,0-.36,0-.46-.09s-.1-.24-.1-.48A2.07,2.07,0,0,0,196.68,302.44Zm.11,3a.55.55,0,0,1,.4-.11h18.69c.45,0,.55,0,.59.47v.1a1.61,1.61,0,0,1-.73,1.67,2.09,2.09,0,0,0-.22.2l-.18.18a2.14,2.14,0,0,0-.73,2.21,4.23,4.23,0,0,0,1.66,2.54l.06,0a.42.42,0,0,1,.25.3.48.48,0,0,1-.17.39l-.31.35a6.14,6.14,0,0,1-.42.47,2.32,2.32,0,0,0-.3,2.78,4.59,4.59,0,0,0,1.11,1.33l.4.35-.11.12c-.11.12-.21.25-.32.38a10.21,10.21,0,0,1-.69.77,2.35,2.35,0,0,0-.21,3.16,7,7,0,0,0,1,1.06l.14.13c.22.22.23.39,0,.61s-.37.42-.55.64-.36.42-.55.62a1.88,1.88,0,0,0-.54,1.33.46.46,0,0,1-.12.35.46.46,0,0,1-.34.11H201c-.86,0-.92-.06-1.16-.88a15,15,0,0,0-1.8-4,.62.62,0,0,1-.06-.48,26.72,26.72,0,0,0,1.16-6.67,6.24,6.24,0,0,0-1.06-3.69,3.68,3.68,0,0,0-1.14-1.28.51.51,0,0,1-.2-.41c0-.77,0-1.53,0-2.3v-2.51A.41.41,0,0,1,196.79,305.48Zm-3.68,31-3.05-3.05-.15-.14a1.09,1.09,0,0,1-.43-.59.93.93,0,0,1,.27-.63,1.07,1.07,0,0,0,.13-.19l.23-.37c.2-.34.41-.69.64-1a4.47,4.47,0,0,0,.69-2.36c0-.42,0-.84.05-1.26,0-.82,0-1.67.13-2.5a10.84,10.84,0,0,1,.45-2.24c.54-1.73,1.11-3.49,1.65-5.18l.75-2.33c.06-.18.11-.36.17-.55s.17-.58.27-.87a.62.62,0,0,1,.42-.4.72.72,0,0,1,.61.21,4.67,4.67,0,0,1,1,3.33,31.35,31.35,0,0,1-.71,4.44c-.17.66-.34,1.26-.54,1.83a1.3,1.3,0,0,0,.22,1.29,12.57,12.57,0,0,1,2.29,6.19,13.88,13.88,0,0,1-.68,6.11,1.1,1.1,0,0,0,.1,1.11,1,1,0,0,0,1,.43,1,1,0,0,0,.84-.63,6.35,6.35,0,0,0,.31-.9.44.44,0,0,1,.47-.36H209l.17,0,.44.06-.35.38-.21.21a9.58,9.58,0,0,1-5.78,2.82c-.84.09-1.7.09-2.52.1h-.17a1.21,1.21,0,0,0-.95.36l-.32.32c-.31.31-.61.62-.9.94a.52.52,0,0,1-.33.19h0a.51.51,0,0,1-.34-.19Z"/><path class="cls-36" d="M201.57,321.89l3.22-5.79-1.18.15,4.51,4.51a.76.76,0,0,0,1.25-.33l2.82-8.45.4-1.21c.31-.92-1.14-1.31-1.45-.4l-2.81,8.45-.41,1.21,1.26-.33-4.51-4.51a.76.76,0,0,0-1.18.15l-3.22,5.8c-.46.84.83,1.6,1.3.75Z"/><circle class="cls-36" cx="201.57" cy="320.87" r="1.93"/><circle class="cls-36" cx="209.29" cy="320.87" r="1.93"/><circle class="cls-36" cx="204.14" cy="314.43" r="1.93"/><circle class="cls-36" cx="211.87" cy="310.57" r="1.93"/><path class="cls-36" d="M65,419.82V394.35a2.85,2.85,0,0,1,3-3h36.54a4,4,0,0,1,1.55.28,2.7,2.7,0,0,1,1.65,2.65v25.57Zm2.18-25.95v23.42h38.41V393.87Z"/><path class="cls-36" d="M60.36,421.08H79.61s0,.09,0,.14a1.46,1.46,0,0,0,1.57,1.06H91.49c1,0,1.54-.35,1.74-1.21h19.26a2.35,2.35,0,0,1-.31,1.37,4.48,4.48,0,0,1-4.05,2.32H65a4.61,4.61,0,0,1-4.29-2.3A2.66,2.66,0,0,1,60.36,421.08Z"/><path class="cls-36" d="M74.69,410.19V396.58c0-.43.12-.55.55-.55h16.2c.34,0,.48.14.48.48v3.2h.22c.71,0,1.41,0,2.12,0a6.14,6.14,0,0,1,3.34,1.18,6.29,6.29,0,0,1,2.74,4.94c.07,1.36,0,2.72,0,4.08v.25a1.17,1.17,0,0,1,.83.39,1.08,1.08,0,0,1,.18,1.23,1.06,1.06,0,0,1-1,.67H98.68a.27.27,0,0,0-.28.17,3,3,0,0,1-5.27,0,.33.33,0,0,0-.35-.21H83.46a.35.35,0,0,0-.36.21,2.8,2.8,0,0,1-2.63,1.6,2.85,2.85,0,0,1-2.66-1.67.23.23,0,0,0-.24-.14H74.71a1.08,1.08,0,0,1-1-.68,1.1,1.1,0,0,1,.2-1.23A1.19,1.19,0,0,1,74.69,410.19Zm.79,0h2a.29.29,0,0,0,.32-.19,3,3,0,0,1,5.29,0,.24.24,0,0,0,.27.16h7.73V396.83H75.48Zm16.45,0h.85a.32.32,0,0,0,.35-.21,3,3,0,0,1,5.27,0c0,.07.11.18.17.18.33,0,.66,0,1,0v-3.66c0-.17,0-.34,0-.51a5.78,5.78,0,0,0-1.88-4,5.5,5.5,0,0,0-3.44-1.51c-.74,0-1.48,0-2.21,0l-.13,0Zm-9.29,1.14a2.17,2.17,0,0,0-4.34,0,2.17,2.17,0,1,0,4.34,0Zm15.29,0a2.17,2.17,0,0,0-4.34,0,2.17,2.17,0,1,0,4.34,0Zm-14.5.33H92.8V411H83.43Zm-5.91,0a4.82,4.82,0,0,1,0-.54c0-.12,0-.16-.15-.16H74.74a.45.45,0,0,0-.27.1.31.31,0,0,0-.09.37.37.37,0,0,0,.38.24h2.63Zm21.19,0h1.59c.24,0,.41-.16.4-.36a.37.37,0,0,0-.41-.36H98.71Z"/><path class="cls-36" d="M92.78,404v-2.19c0-.34.14-.48.47-.48a6.08,6.08,0,0,1,1.9.18,4.89,4.89,0,0,1,3.56,4.38c0,.12,0,.23,0,.34a.38.38,0,0,1-.42.4l-2.32,0-2.75,0c-.32,0-.46-.14-.46-.46Zm5.13,1.86a4.09,4.09,0,0,0-4.33-3.72v3.72Z"/><path class="cls-36" d="M79.25,411.35a1.21,1.21,0,0,1,1.22-1.24,1.23,1.23,0,1,1,0,2.46A1.21,1.21,0,0,1,79.25,411.35Zm.78,0a.45.45,0,0,0,.44.46.46.46,0,0,0,.46-.45.47.47,0,0,0-.46-.45A.45.45,0,0,0,80,411.33Z"/><path class="cls-36" d="M95.74,412.57A1.23,1.23,0,1,1,97,411.34,1.23,1.23,0,0,1,95.74,412.57Zm0-1.68a.46.46,0,0,0-.45.45.47.47,0,0,0,.44.45.48.48,0,0,0,.46-.44A.48.48,0,0,0,95.76,410.89Z"/></g></g></g></svg>